<?xml version="1.0" encoding="iso-8859-1"?>
<!-- Generator: Adobe Illustrator 19.0.0, SVG Export Plug-In . SVG Version: 6.00 Build 0)  -->
<svg version="1.1" id="Layer_1" xmlns="http://www.w3.org/2000/svg" xmlns:xlink="http://www.w3.org/1999/xlink" x="0px" y="0px"
	 viewBox="0 0 316.56 316.56" style="enable-background:new 0 0 316.56 316.56;" xml:space="preserve">
<g>
	<g>
		<g>
			<path d="M196.833,306.716c-11.068,2.52-22.524,3.808-34.04,3.816c-1.66,0-3.012,1.352-3.012,3.016
				c0.004,1.664,1.352,3.012,3.016,3.012h0.004c11.968-0.008,23.868-1.344,35.368-3.964c1.628-0.372,2.644-1.988,2.272-3.608
				C200.073,307.36,198.429,306.34,196.833,306.716z"/>
			<path d="M70.637,244.976c3.524,3.732,7.32,7.296,11.284,10.592c0.564,0.468,1.244,0.696,1.928,0.696
				c0.864,0,1.724-0.372,2.316-1.088c1.064-1.284,0.892-3.184-0.388-4.244c-3.78-3.136-7.4-6.532-10.752-10.088
				c-1.144-1.216-3.052-1.264-4.264-0.124C69.553,241.856,69.493,243.764,70.637,244.976z"/>
			<path d="M41.833,187.432c0.216,0,0.432-0.024,0.652-0.072c1.624-0.356,2.652-1.964,2.3-3.592c-1.052-4.78-1.82-9.68-2.28-14.56
				c-0.156-1.656-1.628-2.844-3.284-2.716c-1.656,0.156-2.876,1.628-2.716,3.284c0.48,5.124,1.284,10.268,2.388,15.288
				C39.205,186.476,40.449,187.432,41.833,187.432z"/>
			<path d="M108.037,265.604c-4.364-2.228-8.632-4.752-12.696-7.5c-1.376-0.936-3.252-0.572-4.184,0.808
				c-0.936,1.38-0.568,3.252,0.812,4.188c4.264,2.884,8.748,5.532,13.328,7.872c0.44,0.224,0.904,0.332,1.368,0.332
				c1.096,0,2.156-0.6,2.688-1.644C110.109,268.18,109.521,266.36,108.037,265.604z"/>
			<path d="M198.437,279.76c0.284,0,0.568-0.04,0.856-0.124c4.924-1.456,9.812-3.236,14.54-5.292
				c1.528-0.664,2.228-2.44,1.564-3.968c-0.66-1.528-2.448-2.224-3.964-1.564c-4.504,1.96-9.164,3.656-13.852,5.04
				c-1.596,0.472-2.508,2.152-2.036,3.748C195.933,278.912,197.133,279.76,198.437,279.76z"/>
			<path d="M62.477,235.444c0.592,0.768,1.488,1.168,2.388,1.168c0.644,0,1.292-0.208,1.84-0.632c1.316-1.02,1.56-2.912,0.544-4.232
				c-3.004-3.876-5.796-7.976-8.3-12.18c-0.844-1.428-2.696-1.904-4.132-1.048c-1.432,0.852-1.904,2.704-1.048,4.136
				C56.393,227.072,59.325,231.372,62.477,235.444z"/>
			<path d="M38.945,160.264c1.664,0,3.008-1.34,3.016-3.004c0.016-4.924,0.328-9.876,0.928-14.72
				c0.208-1.652-0.968-3.156-2.616-3.364c-1.672-0.2-3.156,0.968-3.364,2.62c-0.632,5.084-0.964,10.28-0.98,15.444
				c-0.004,1.664,1.34,3.02,3.008,3.024H38.945z"/>
			<path d="M47.889,211.568c0.512,1.092,1.6,1.736,2.728,1.736c0.432,0,0.864-0.092,1.28-0.288c1.508-0.708,2.156-2.5,1.448-4.008
				c-2.084-4.448-3.908-9.056-5.424-13.7c-0.52-1.58-2.204-2.456-3.8-1.932c-1.58,0.516-2.448,2.22-1.932,3.8
				C43.785,202.052,45.701,206.892,47.889,211.568z"/>
			<path d="M162.293,281.872c0.052-1.664-1.256-3.052-2.92-3.104c-4.904-0.148-9.844-0.6-14.68-1.336
				c-1.644-0.232-3.184,0.884-3.432,2.528c-0.252,1.644,0.88,3.184,2.528,3.432c5.076,0.772,10.26,1.244,15.408,1.404h0.092
				C160.905,284.796,162.245,283.504,162.293,281.872z"/>
			<path d="M132.977,275.044c-4.74-1.216-9.464-2.736-14.04-4.528c-1.528-0.6-3.292,0.16-3.904,1.708
				c-0.608,1.552,0.156,3.3,1.712,3.908c4.796,1.876,9.76,3.476,14.736,4.752c0.252,0.064,0.504,0.096,0.752,0.096
				c1.34,0,2.568-0.908,2.916-2.268C135.561,277.1,134.589,275.456,132.977,275.044z"/>
			<path d="M185.957,276.676c-4.8,0.916-9.72,1.548-14.624,1.872c-1.664,0.112-2.92,1.548-2.808,3.208
				c0.104,1.592,1.428,2.812,3.004,2.812c0.068,0,0.136,0,0.204-0.004c5.144-0.344,10.312-1.004,15.356-1.964
				c1.636-0.312,2.708-1.892,2.396-3.528C189.169,277.436,187.593,276.376,185.957,276.676z"/>
			<path d="M249.105,63.928c-3.688-3.384-7.608-6.58-11.664-9.508c-1.36-0.972-3.236-0.668-4.212,0.68
				c-0.972,1.352-0.668,3.236,0.68,4.208c3.864,2.788,7.604,5.832,11.116,9.056c0.58,0.532,1.308,0.792,2.04,0.792
				c0.816,0,1.628-0.328,2.224-0.972C250.413,66.964,250.329,65.052,249.105,63.928z"/>
			<path d="M224.169,52.972c0.48,0.28,1,0.416,1.516,0.416c1.04,0,2.044-0.536,2.604-1.492c0.844-1.44,0.36-3.288-1.08-4.128
				c-4.316-2.524-8.832-4.816-13.424-6.812c-1.52-0.668-3.304,0.036-3.968,1.564c-0.66,1.528,0.036,3.304,1.568,3.968
				C215.757,48.388,220.057,50.568,224.169,52.972z"/>
			<path d="M131.445,37.516c0.328,1.384,1.568,2.32,2.928,2.32c0.232,0,0.468-0.028,0.7-0.084c4.624-1.092,9.376-1.924,14.12-2.468
				c1.652-0.188,2.84-1.684,2.652-3.336c-0.188-1.656-1.716-2.82-3.34-2.652c-4.98,0.572-9.968,1.444-14.82,2.596
				C132.061,34.272,131.057,35.896,131.445,37.516z"/>
			<path d="M253.437,72.376c-1.24,1.112-1.336,3.02-0.224,4.256c3.184,3.54,6.192,7.312,8.94,11.2
				c0.592,0.832,1.52,1.276,2.468,1.276c0.6,0,1.204-0.18,1.736-0.552c1.36-0.96,1.684-2.844,0.724-4.2
				c-2.884-4.084-6.04-8.036-9.388-11.756C256.581,71.364,254.665,71.268,253.437,72.376z"/>
			<path d="M290.321,157.652c-0.004-3.8-0.176-7.628-0.508-11.376c-0.144-1.66-1.596-2.888-3.268-2.736
				c-1.656,0.148-2.88,1.612-2.736,3.268c0.316,3.572,0.48,7.224,0.48,10.852c0,1.164-0.016,2.328-0.044,3.484
				c-0.052,1.664,1.264,3.052,2.928,3.096h0.084c1.628,0,2.964-1.292,3.012-2.928C290.305,160.096,290.321,158.88,290.321,157.652z"
				/>
			<path d="M200.509,42.368c0.312,0.1,0.624,0.148,0.928,0.148c1.272,0,2.456-0.812,2.868-2.088
				c0.516-1.584-0.352-3.284-1.936-3.796c-4.764-1.544-9.672-2.812-14.58-3.78c-1.62-0.332-3.22,0.74-3.54,2.376
				c-0.32,1.632,0.744,3.216,2.376,3.54C191.301,39.688,195.969,40.9,200.509,42.368z"/>
			<path d="M278.773,121.388c1.416,4.528,2.584,9.208,3.464,13.908c0.268,1.448,1.536,2.46,2.956,2.46
				c0.188,0,0.372-0.016,0.56-0.052c1.636-0.308,2.712-1.884,2.404-3.52c-0.924-4.928-2.148-9.844-3.64-14.596
				c-0.496-1.588-2.2-2.476-3.776-1.976C279.161,118.108,278.273,119.8,278.773,121.388z"/>
			<path d="M274.765,110.476c0.484,1.152,1.6,1.84,2.776,1.84c0.396,0,0.788-0.076,1.176-0.236c1.532-0.648,2.248-2.42,1.6-3.952
				c-1.944-4.604-4.192-9.14-6.672-13.48c-0.824-1.448-2.672-1.952-4.112-1.124c-1.448,0.828-1.948,2.672-1.124,4.112
				C270.769,101.772,272.909,106.092,274.765,110.476z"/>
			<path d="M286.613,188.288c1.196-4.86,2.12-9.84,2.736-14.804c0.208-1.652-0.968-3.156-2.62-3.364
				c-1.664-0.2-3.156,0.968-3.364,2.62c-0.588,4.728-1.468,9.472-2.608,14.104c-0.396,1.616,0.592,3.248,2.208,3.648
				c0.244,0.06,0.484,0.088,0.724,0.088C285.045,190.584,286.273,189.664,286.613,188.288z"/>
			<path d="M270.361,220.388c-1.42-0.876-3.28-0.436-4.148,0.976c-2.508,4.056-5.284,7.996-8.252,11.72
				c-1.036,1.304-0.828,3.2,0.48,4.24c0.556,0.44,1.22,0.656,1.88,0.656c0.884,0,1.76-0.388,2.356-1.132
				c3.116-3.908,6.032-8.048,8.668-12.308C272.213,223.12,271.777,221.264,270.361,220.388z"/>
			<path d="M162.889,36.492c4.144-0.048,8.196,0.188,12.24,0.588c0.1,0.008,0.2,0.016,0.296,0.016c1.536,0,2.844-1.164,2.996-2.72
				c0.16-1.656-1.048-3.132-2.704-3.292c-4.164-0.408-8.396-0.616-12.584-0.616c-0.82-0.008-1.628,0.008-2.444,0.02
				c-1.664,0.032-2.992,1.404-2.964,3.072c0.036,1.664,1.348,3.02,3.072,2.956C161.493,36.5,162.189,36.492,162.889,36.492z"/>
			<path d="M109.345,48.716c0.436,0,0.88-0.1,1.304-0.3c4.292-2.068,8.752-3.896,13.26-5.436c1.576-0.536,2.412-2.248,1.88-3.828
				c-0.54-1.576-2.252-2.428-3.832-1.876c-4.728,1.612-9.416,3.536-13.924,5.704c-1.5,0.724-2.132,2.528-1.412,4.028
				C107.145,48.084,108.221,48.716,109.345,48.716z"/>
			<path d="M273.221,215.232c0.428,0.212,0.884,0.312,1.328,0.312c1.112,0,2.18-0.62,2.712-1.68
				c2.208-4.48,4.176-9.144,5.844-13.876c0.556-1.572-0.264-3.292-1.836-3.848c-1.576-0.548-3.292,0.272-3.844,1.84
				c-1.592,4.504-3.464,8.948-5.572,13.208C271.117,212.684,271.725,214.492,273.221,215.232z"/>
			<path d="M67.685,81.224c0.86,0,1.72-0.368,2.316-1.08c3.052-3.66,6.356-7.18,9.812-10.46c1.208-1.144,1.26-3.052,0.116-4.264
				c-1.144-1.204-3.052-1.256-4.264-0.112c-3.628,3.44-7.096,7.132-10.296,10.972c-1.068,1.28-0.896,3.18,0.384,4.248
				C66.317,80.996,67.001,81.224,67.685,81.224z"/>
			<path d="M86.769,62.732c0.652,0,1.304-0.208,1.856-0.636c3.76-2.936,7.728-5.672,11.8-8.14c1.424-0.864,1.88-2.716,1.016-4.14
				c-0.868-1.424-2.708-1.888-4.144-1.016c-4.276,2.588-8.44,5.464-12.388,8.544c-1.308,1.024-1.544,2.92-0.52,4.232
				C84.985,62.336,85.877,62.732,86.769,62.732z"/>
			<path d="M222.821,215.716c0.58,0.524,1.304,0.784,2.028,0.784c0.82,0,1.636-0.332,2.228-0.984
				c14.528-15.992,22.532-36.712,22.532-58.336c0-23.096-8.948-44.592-25.12-60.932c1.82-2.428,2.936-5.408,2.936-8.668
				c0-8.024-6.532-14.552-14.552-14.552c-4.924,0-9.268,2.472-11.904,6.228c-11.808-5.78-24.908-8.852-38.14-8.852
				c-1.664,0-3.016,1.348-3.016,3.016c0,1.664,1.352,3.016,3.016,3.016c12.42,0,24.708,2.912,35.768,8.376
				c-0.176,0.9-0.28,1.824-0.28,2.776c0,8.024,6.532,14.548,14.552,14.548c2.58,0,4.972-0.732,7.08-1.916
				c15.212,15.236,23.628,35.348,23.628,56.968c0,20.12-7.444,39.4-20.96,54.28C221.497,212.688,221.589,214.596,222.821,215.716z
				 M212.873,96.096c-4.7,0-8.52-3.82-8.52-8.52c0-0.676,0.1-1.328,0.248-1.956c1.076-3.892,5.176-6.568,8.272-6.568
				c4.7,0,8.52,3.828,8.52,8.524C221.393,92.272,217.569,96.096,212.873,96.096z"/>
			<path d="M162.829,243.956c1.664,0,3.016-1.348,3.016-3.016c0-1.664-1.348-3.016-3.016-3.016c-24.7,0-48.224-11.516-63.48-30.892
				c2.296-2.66,3.736-6.084,3.736-9.864c0-8.38-6.82-15.192-15.192-15.192c-0.616,0-1.2,0.112-1.796,0.18
				c-2.62-8.048-4.016-16.428-4.016-24.988c0-32.528,19.356-61.732,49.32-74.408c1.532-0.648,2.248-2.42,1.6-3.952
				c-0.648-1.536-2.416-2.244-3.952-1.604c-32.196,13.62-53.004,45.008-53.004,79.96c0,9.2,1.504,18.216,4.324,26.876
				c-4.56,2.624-7.676,7.492-7.676,13.12c0,8.38,6.82,15.192,15.2,15.192c2.416,0,4.668-0.62,6.7-1.628
				C110.985,231.572,136.277,243.956,162.829,243.956z M87.893,206.34c-5.056,0-9.164-4.112-9.164-9.164s4.108-9.164,9.164-9.164
				c5.052,0,9.16,4.112,9.16,9.164S92.945,206.34,87.893,206.34z"/>
			<path d="M208.633,157.18c0-25.256-20.548-45.804-45.804-45.804s-45.804,20.544-45.804,45.804
				c0,25.256,20.548,45.804,45.804,45.804S208.633,182.436,208.633,157.18z M162.829,196.956c-21.932,0-39.772-17.844-39.772-39.776
				s17.84-39.776,39.772-39.776s39.772,17.844,39.772,39.776C202.601,179.108,184.761,196.956,162.829,196.956z"/>
			<path d="M29.109,107.992c0,7.592,4.58,14.108,11.112,17.004c-0.376,1.424-0.784,2.836-1.112,4.276
				c-0.372,1.624,0.648,3.24,2.272,3.612c0.224,0.052,0.448,0.076,0.672,0.076c1.376,0,2.616-0.948,2.94-2.344
				c0.32-1.412,0.712-2.788,1.08-4.176c0.556,0.048,1.088,0.168,1.656,0.168c10.268,0,18.616-8.348,18.616-18.612
				c0-5.548-2.488-10.48-6.348-13.892c0.972-1.576,1.948-3.156,2.992-4.68c0.94-1.376,0.588-3.252-0.788-4.192
				c-1.372-0.936-3.248-0.584-4.188,0.788c-1.076,1.572-2.076,3.192-3.08,4.816c-2.216-0.936-4.652-1.456-7.204-1.456
				C37.461,89.376,29.109,97.728,29.109,107.992z M47.729,95.404c6.94,0,12.584,5.644,12.584,12.588
				c0,6.94-5.644,12.584-12.584,12.584c-0.676,0-1.328-0.096-1.976-0.2c-0.288-0.224-0.764,0.084-2.28-0.592
				c-4.84-1.752-8.328-6.356-8.328-11.792C35.145,101.048,40.789,95.404,47.729,95.404z"/>
			<path d="M249.809,254.012c0-1.024-0.136-2.008-0.348-2.968c1.704-1.576,3.376-3.18,4.988-4.848
				c1.156-1.196,1.132-3.104-0.068-4.264c-1.196-1.156-3.108-1.132-4.264,0.068c-1.124,1.16-2.312,2.268-3.484,3.384
				c-2.5-3.024-6.232-4.992-10.452-4.992c-7.512,0-13.624,6.108-13.624,13.62c0,2.888,0.92,5.564,2.464,7.768
				c-0.96,0.572-1.9,1.176-2.876,1.72c-1.456,0.816-1.976,2.652-1.16,4.104c0.556,0.984,1.576,1.544,2.636,1.544
				c0.5,0,1.004-0.124,1.468-0.384c1.596-0.892,3.14-1.856,4.688-2.812c1.92,1.036,4.08,1.676,6.408,1.676
				C243.697,267.632,249.809,261.52,249.809,254.012z M231.005,259.532c-1.476-1.384-2.412-3.34-2.412-5.52
				c0-4.188,3.4-7.592,7.592-7.592c4.188,0,7.592,3.408,7.592,7.592c0,4.188-3.4,7.592-7.592,7.592c-1.388,0-2.672-0.4-3.792-1.052
				C232.029,260.06,231.545,259.728,231.005,259.532z"/>
			<path d="M307.877,111.94c0.408,1.284,1.592,2.1,2.872,2.1c0.3,0,0.612-0.048,0.916-0.144c1.58-0.508,2.46-2.204,1.952-3.788
				c-5.696-17.848-14.632-34.468-26.568-49.388c-1.052-1.304-2.952-1.508-4.24-0.472c-1.3,1.04-1.512,2.94-0.472,4.24
				C293.813,78.828,302.405,94.796,307.877,111.94z"/>
			<path d="M174.337,6.504c28.764,2.324,57.532,13.528,81.004,31.536c0.548,0.42,1.192,0.624,1.832,0.624
				c0.904,0,1.804-0.404,2.396-1.176c1.016-1.32,0.764-3.212-0.556-4.228c-24.736-18.984-53.848-30.312-84.192-32.768
				c-1.564-0.124-3.112,1.1-3.248,2.76C171.437,4.912,172.673,6.368,174.337,6.504z"/>
			<path d="M151.941,6.396c0.072,0,0.144-0.004,0.212-0.008c4.696-0.328,9.456-0.436,14.172-0.312
				c1.74-0.028,3.044-1.272,3.084-2.936c0.048-1.664-1.272-3.048-2.936-3.092c-4.872-0.12-9.852-0.016-14.736,0.328
				c-1.664,0.116-2.916,1.556-2.8,3.216C149.049,5.184,150.369,6.396,151.941,6.396z"/>
			<path d="M113.217,14.108c0.32,0,0.644-0.052,0.964-0.16c8.884-2.992,18.144-5.172,27.52-6.476c1.652-0.228,2.8-1.752,2.572-3.4
				c-0.232-1.644-1.732-2.82-3.404-2.568c-9.748,1.356-19.372,3.62-28.616,6.736c-1.576,0.528-2.424,2.24-1.892,3.816
				C110.781,13.316,111.961,14.108,113.217,14.108z"/>
			<path d="M5.017,180.78c1.652-0.208,2.824-1.716,2.616-3.364c-5.46-43.592,8.072-87.38,37.128-120.136
				c1.108-1.244,0.992-3.152-0.252-4.256c-1.252-1.104-3.144-1-4.256,0.256c-30.208,34.056-44.276,79.572-38.6,124.884
				c0.192,1.524,1.492,2.64,2.988,2.64C4.765,180.804,4.893,180.796,5.017,180.78z"/>
			<path d="M9.297,187.744c-0.32-1.632-1.932-2.696-3.54-2.376c-1.64,0.32-2.696,1.904-2.376,3.54
				c1.836,9.32,4.568,18.572,8.12,27.492c0.468,1.184,1.604,1.904,2.8,1.904c0.368,0,0.744-0.068,1.112-0.212
				c1.548-0.62,2.3-2.372,1.684-3.916C13.689,205.596,11.065,196.704,9.297,187.744z"/>
			<path d="M85.637,291.884c-21.824-12.048-40.672-29.58-54.508-50.708c-0.908-1.388-2.768-1.784-4.176-0.872
				c-1.392,0.912-1.784,2.78-0.868,4.176c14.368,21.944,33.952,40.164,56.632,52.684c0.46,0.252,0.964,0.376,1.456,0.376
				c1.06,0,2.092-0.56,2.64-1.56C87.621,294.524,87.093,292.692,85.637,291.884z"/>
			<path d="M218.421,300.024c-3.904,1.544-7.964,2.952-12.064,4.184c-1.596,0.48-2.496,2.16-2.02,3.756
				c0.396,1.304,1.592,2.148,2.888,2.148c0.288,0,0.576-0.04,0.868-0.128c4.264-1.284,8.484-2.748,12.548-4.352
				c1.544-0.612,2.304-2.364,1.696-3.912C221.721,300.168,219.977,299.416,218.421,300.024z"/>
			<path d="M298.797,233.048c-1.444-0.848-3.292-0.356-4.124,1.08c-14.42,24.708-35.208,44.896-60.104,58.38
				c-1.46,0.792-2.008,2.62-1.216,4.084c0.544,1.004,1.584,1.58,2.656,1.58c0.48,0,0.976-0.116,1.432-0.364
				c25.868-14.008,47.46-34.98,62.44-60.636C300.721,235.736,300.237,233.888,298.797,233.048z"/>
			<path d="M313.889,194.368c-1.624-0.416-3.256,0.544-3.676,2.16c-1.256,4.82-2.764,9.616-4.484,14.244
				c-0.58,1.56,0.216,3.292,1.772,3.872c0.352,0.128,0.704,0.192,1.052,0.192c1.228,0,2.376-0.752,2.824-1.968
				c1.792-4.816,3.36-9.804,4.664-14.824C316.465,196.436,315.501,194.788,313.889,194.368z"/>
		</g>
	</g>
</g>
<g>
</g>
<g>
</g>
<g>
</g>
<g>
</g>
<g>
</g>
<g>
</g>
<g>
</g>
<g>
</g>
<g>
</g>
<g>
</g>
<g>
</g>
<g>
</g>
<g>
</g>
<g>
</g>
<g>
</g>
</svg>
