<svg xmlns="http://www.w3.org/2000/svg" width="160" height="160" viewBox="0 0 160 160">
    <defs>
        <linearGradient id="a" x1="62.345%" x2="39.234%" y1="89.972%" y2="25.364%">
            <stop offset="0%" stop-color="#63C4EB"/>
            <stop offset="100%" stop-color="#0093CF"/>
        </linearGradient>
        <linearGradient id="b" x1="-90.977%" y1="50%" y2="50%">
            <stop offset="0%" stop-color="#166BFF"/>
            <stop offset="100%" stop-color="#04E"/>
        </linearGradient>
    </defs>
    <g fill="none" fill-rule="evenodd">
        <ellipse cx="80.211" cy="79.884" stroke="#DAE2EE" stroke-width="0" rx="68.27" ry="68.7" transform="rotate(-180 80.211 79.884)"/>
        <path fill="#509FFF" d="M80.211 10.684v69.2h68.77c0-38.218-30.79-69.2-68.77-69.2z" opacity=".3"/>
        <path fill="#509FFF" d="M80.211 79.884v69.2c37.98 0 68.77-30.982 68.77-69.2h-68.77z" opacity=".5"/>
        <path fill="#166BFF" d="M80.211 79.884v69.2c19.33 0 36.798-8.025 49.292-20.945-15.217-15.455-24.646-24.533-49.292-48.255z" opacity=".6"/>
        <path fill="#4AB8E4" d="M80.211 27.984v103.8c28.486 0 51.578-23.236 51.578-51.9 0-28.663-23.092-51.9-51.578-51.9z" opacity=".3"/>
        <path fill="#C1CDDF" d="M80.211 131.784v-103.8c-28.485 0-51.577 23.237-51.577 51.9 0 28.664 23.092 51.9 51.577 51.9z" opacity=".3"/>
        <path fill="#509FFF" d="M80.211 28.36v103.8c28.486 0 51.578-23.237 51.578-51.9 0-28.664-23.092-51.9-51.578-51.9z" opacity=".1"/>
        <!-- <path fill="#166BFF" d="M80.211 80.26v51.9c28.486 0 51.578-23.237 51.578-51.9-25.789-.376-23.092 0-51.578 0z" opacity=".647"/> -->
        <path fill="#166BFF" d="M80.211 80.26v51.9c28.486 0 51.578-23.237 51.578-51.9-25.789-.376-23.092 0-51.578 0z" opacity=".05"/>
        <!-- <path fill="url(#a)" d="M114.596 114.484v-69.2c-18.99 0-34.385 15.491-34.385 34.6 0 19.11 15.395 34.6 34.385 34.6z" transform="rotate(-180 97.404 79.884)"/> -->
        <path fill="#C1CDDF" d="M80.211 114.86v-69.2c-18.99 0-34.385 15.49-34.385 34.6 0 19.108 15.395 34.6 34.385 34.6z"/>
        <!-- <path fill="url(#b)" d="M114.596 114.484v-69.2c-18.99 0-34.385 15.491-34.385 34.6 0 19.11 15.395 34.6 34.385 34.6z" transform="rotate(-180 97.404 79.884)"/> -->
        <path fill="#4172f0" d="M114.596 114.484v-69.2c-18.99 0-34.385 15.491-34.385 34.6 0 19.11 15.395 34.6 34.385 34.6z" transform="rotate(-180 97.404 80.05)"/>
        <ellipse cx="80.211" cy="79.884" fill="#FFF" rx="17.193" ry="17.3" transform="rotate(-180 80.211 79.884)"/>
    </g>
</svg>
